<svg width="176" height="29" viewBox="0 0 176 29" fill="none" xmlns="http://www.w3.org/2000/svg">
<path d="M0 25.2953L1.09253e-06 16.9639L8.33139 16.9639L8.33138 25.2953L0 25.2953Z" fill="#22CCBB" fill-opacity="0.4"/>
<rect x="8.33142" y="16.9639" width="8.33138" height="8.33138" transform="rotate(-90 8.33142 16.9639)" fill="#22CCBB" fill-opacity="0.4"/>
<rect y="16.9639" width="8.33138" height="8.33138" transform="rotate(-90 0 16.9639)" fill="#22CCBB" fill-opacity="0.6"/>
<path d="M16.6627 8.63257L16.6627 0.301184L24.9941 0.301185L24.9941 8.63257L16.6627 8.63257Z" fill="#22CCBB" fill-opacity="0.4"/>
<rect x="8.33142" y="8.63257" width="8.33138" height="8.33138" transform="rotate(-90 8.33142 8.63257)" fill="#22CCBB" fill-opacity="0.6"/>
<path d="M0 8.63257L1.09253e-06 0.301184L8.33139 0.301185L8.33138 8.63257L0 8.63257Z" fill="#22CCBB" fill-opacity="0.9"/>
<path d="M36.8663 22.699H40.4139V15.7677H47.2387V12.8428H40.4139V8.84459H47.976V5.91968H36.8663V22.699ZM55.0589 22.9448C58.8768 22.9448 61.2528 20.3312 61.2528 16.4559C61.2528 12.556 58.8768 9.95065 55.0589 9.95065C51.241 9.95065 48.865 12.556 48.865 16.4559C48.865 20.3312 51.241 22.9448 55.0589 22.9448ZM55.0753 20.2411C53.3138 20.2411 52.4126 18.627 52.4126 16.4313C52.4126 14.2356 53.3138 12.6134 55.0753 12.6134C56.804 12.6134 57.7052 14.2356 57.7052 16.4313C57.7052 18.627 56.804 20.2411 55.0753 20.2411ZM63.5223 22.699H67.0125V15.5792C67.0207 14.039 68.1349 12.9821 69.5441 12.9821C70.0193 12.9821 70.4044 13.1131 70.7321 13.277L71.7808 10.3931C71.322 10.1145 70.7321 9.93426 70.0603 9.93426C68.6429 9.93426 67.4959 10.7536 67.0371 12.3102H66.906V10.1145H63.5223V22.699ZM78.5626 22.9448C81.676 22.9448 83.7734 21.4291 84.2649 19.094L81.0369 18.881C80.6846 19.8396 79.7834 20.3394 78.62 20.3394C76.8748 20.3394 75.7688 19.1842 75.7688 17.308V17.2998H84.3387V16.3412C84.3387 12.0644 81.7497 9.95065 78.4233 9.95065C74.7201 9.95065 72.3195 12.5806 72.3195 16.4641C72.3195 20.4541 74.6873 22.9448 78.5626 22.9448ZM75.7688 15.1368C75.8425 13.703 76.9322 12.556 78.4807 12.556C79.9964 12.556 81.0451 13.6375 81.0533 15.1368H75.7688ZM93.31 10.1145H90.9422V7.09948H87.452V10.1145H85.7315V12.7363H87.452V19.2907C87.4356 21.7568 89.1152 22.9775 91.6468 22.871C92.5481 22.8383 93.1871 22.658 93.5394 22.5433L92.9905 19.9461C92.8184 19.9789 92.4498 20.0608 92.122 20.0608C91.4256 20.0608 90.9422 19.7986 90.9422 18.8319V12.7363H93.31V10.1145ZM99.3442 15.4236C99.3524 13.8014 100.344 12.851 101.769 12.851C103.187 12.851 104.022 13.7604 104.014 15.3089V22.699H107.504V14.6862C107.513 11.7367 105.776 9.95065 103.154 9.95065C101.245 9.95065 99.9669 10.8519 99.3933 12.3348H99.2459V5.91968H95.854V22.699H99.3442V15.4236ZM115.937 22.9448C119.755 22.9448 122.131 20.3312 122.131 16.4559C122.131 12.556 119.755 9.95065 115.937 9.95065C112.119 9.95065 109.743 12.556 109.743 16.4559C109.743 20.3312 112.119 22.9448 115.937 22.9448ZM115.953 20.2411C114.192 20.2411 113.291 18.627 113.291 16.4313C113.291 14.2356 114.192 12.6134 115.953 12.6134C117.682 12.6134 118.583 14.2356 118.583 16.4313C118.583 18.627 117.682 20.2411 115.953 20.2411ZM132.471 17.3407C132.479 19.0285 131.324 19.9133 130.07 19.9133C128.751 19.9133 127.899 18.9875 127.891 17.5046V10.1145H124.4V18.1273C124.409 21.0686 126.129 22.8628 128.661 22.8628C130.553 22.8628 131.913 21.8879 132.479 20.4131H132.61V22.699H135.961V10.1145H132.471V17.3407ZM144.422 27.5984C148.019 27.5984 150.575 25.9598 150.575 22.8219V10.1145H147.109V12.2283H146.978C146.511 11.2042 145.487 9.95065 143.382 9.95065C140.621 9.95065 138.286 12.0972 138.286 16.3822C138.286 20.5688 140.555 22.5187 143.39 22.5187C145.397 22.5187 146.52 21.511 146.978 20.4705H147.126V22.7727C147.126 24.4195 146.02 25.0913 144.504 25.0913C142.964 25.0913 142.185 24.4195 141.899 23.7395L138.671 24.1737C139.088 26.0745 141.03 27.5984 144.422 27.5984ZM144.496 19.897C142.784 19.897 141.85 18.5369 141.85 16.3658C141.85 14.2274 142.767 12.7281 144.496 12.7281C146.192 12.7281 147.142 14.1619 147.142 16.3658C147.142 18.5861 146.175 19.897 144.496 19.897ZM156.843 15.4236C156.851 13.8014 157.842 12.851 159.268 12.851C160.685 12.851 161.521 13.7604 161.513 15.3089V22.699H165.003V14.6862C165.011 11.7367 163.274 9.95065 160.653 9.95065C158.744 9.95065 157.465 10.8519 156.892 12.3348H156.744V5.91968H153.353V22.699H156.843V15.4236ZM174.443 10.1145H172.076V7.09948H168.585V10.1145H166.865V12.7363H168.585V19.2907C168.569 21.7568 170.249 22.9775 172.78 22.871C173.681 22.8383 174.32 22.658 174.673 22.5433L174.124 19.9461C173.952 19.9789 173.583 20.0608 173.255 20.0608C172.559 20.0608 172.076 19.7986 172.076 18.8319V12.7363H174.443V10.1145Z" fill="white"/>
<path d="M36.8663 22.699H40.4139V15.7677H47.2387V12.8428H40.4139V8.84459H47.976V5.91968H36.8663V22.699ZM55.0589 22.9448C58.8768 22.9448 61.2528 20.3312 61.2528 16.4559C61.2528 12.556 58.8768 9.95065 55.0589 9.95065C51.241 9.95065 48.865 12.556 48.865 16.4559C48.865 20.3312 51.241 22.9448 55.0589 22.9448ZM55.0753 20.2411C53.3138 20.2411 52.4126 18.627 52.4126 16.4313C52.4126 14.2356 53.3138 12.6134 55.0753 12.6134C56.804 12.6134 57.7052 14.2356 57.7052 16.4313C57.7052 18.627 56.804 20.2411 55.0753 20.2411ZM63.5223 22.699H67.0125V15.5792C67.0207 14.039 68.1349 12.9821 69.5441 12.9821C70.0193 12.9821 70.4044 13.1131 70.7321 13.277L71.7808 10.3931C71.322 10.1145 70.7321 9.93426 70.0603 9.93426C68.6429 9.93426 67.4959 10.7536 67.0371 12.3102H66.906V10.1145H63.5223V22.699ZM78.5626 22.9448C81.676 22.9448 83.7734 21.4291 84.2649 19.094L81.0369 18.881C80.6846 19.8396 79.7834 20.3394 78.62 20.3394C76.8748 20.3394 75.7688 19.1842 75.7688 17.308V17.2998H84.3387V16.3412C84.3387 12.0644 81.7497 9.95065 78.4233 9.95065C74.7201 9.95065 72.3195 12.5806 72.3195 16.4641C72.3195 20.4541 74.6873 22.9448 78.5626 22.9448ZM75.7688 15.1368C75.8425 13.703 76.9322 12.556 78.4807 12.556C79.9964 12.556 81.0451 13.6375 81.0533 15.1368H75.7688ZM93.31 10.1145H90.9422V7.09948H87.452V10.1145H85.7315V12.7363H87.452V19.2907C87.4356 21.7568 89.1152 22.9775 91.6468 22.871C92.5481 22.8383 93.1871 22.658 93.5394 22.5433L92.9905 19.9461C92.8184 19.9789 92.4498 20.0608 92.122 20.0608C91.4256 20.0608 90.9422 19.7986 90.9422 18.8319V12.7363H93.31V10.1145ZM99.3442 15.4236C99.3524 13.8014 100.344 12.851 101.769 12.851C103.187 12.851 104.022 13.7604 104.014 15.3089V22.699H107.504V14.6862C107.513 11.7367 105.776 9.95065 103.154 9.95065C101.245 9.95065 99.9669 10.8519 99.3933 12.3348H99.2459V5.91968H95.854V22.699H99.3442V15.4236ZM115.937 22.9448C119.755 22.9448 122.131 20.3312 122.131 16.4559C122.131 12.556 119.755 9.95065 115.937 9.95065C112.119 9.95065 109.743 12.556 109.743 16.4559C109.743 20.3312 112.119 22.9448 115.937 22.9448ZM115.953 20.2411C114.192 20.2411 113.291 18.627 113.291 16.4313C113.291 14.2356 114.192 12.6134 115.953 12.6134C117.682 12.6134 118.583 14.2356 118.583 16.4313C118.583 18.627 117.682 20.2411 115.953 20.2411ZM132.471 17.3407C132.479 19.0285 131.324 19.9133 130.07 19.9133C128.751 19.9133 127.899 18.9875 127.891 17.5046V10.1145H124.4V18.1273C124.409 21.0686 126.129 22.8628 128.661 22.8628C130.553 22.8628 131.913 21.8879 132.479 20.4131H132.61V22.699H135.961V10.1145H132.471V17.3407ZM144.422 27.5984C148.019 27.5984 150.575 25.9598 150.575 22.8219V10.1145H147.109V12.2283H146.978C146.511 11.2042 145.487 9.95065 143.382 9.95065C140.621 9.95065 138.286 12.0972 138.286 16.3822C138.286 20.5688 140.555 22.5187 143.39 22.5187C145.397 22.5187 146.52 21.511 146.978 20.4705H147.126V22.7727C147.126 24.4195 146.02 25.0913 144.504 25.0913C142.964 25.0913 142.185 24.4195 141.899 23.7395L138.671 24.1737C139.088 26.0745 141.03 27.5984 144.422 27.5984ZM144.496 19.897C142.784 19.897 141.85 18.5369 141.85 16.3658C141.85 14.2274 142.767 12.7281 144.496 12.7281C146.192 12.7281 147.142 14.1619 147.142 16.3658C147.142 18.5861 146.175 19.897 144.496 19.897ZM156.843 15.4236C156.851 13.8014 157.842 12.851 159.268 12.851C160.685 12.851 161.521 13.7604 161.513 15.3089V22.699H165.003V14.6862C165.011 11.7367 163.274 9.95065 160.653 9.95065C158.744 9.95065 157.465 10.8519 156.892 12.3348H156.744V5.91968H153.353V22.699H156.843V15.4236ZM174.443 10.1145H172.076V7.09948H168.585V10.1145H166.865V12.7363H168.585V19.2907C168.569 21.7568 170.249 22.9775 172.78 22.871C173.681 22.8383 174.32 22.658 174.673 22.5433L174.124 19.9461C173.952 19.9789 173.583 20.0608 173.255 20.0608C172.559 20.0608 172.076 19.7986 172.076 18.8319V12.7363H174.443V10.1145Z" fill="#07535C"/>
</svg>
